<svg xmlns="http://www.w3.org/2000/svg" viewBox="0 0 512 512"><path fill="#FFF" d="M499.037 101.813c-10.847-62.461-25.838-77.337-89.152-88.42-40.31-7.053-97.21-11.098-156.091-11.098-58.363 0-112.338 3.801-151.978 10.687-62.468 10.855-77.345 25.853-88.405 89.152-14.663 83.819-14.884 224.882-.48 308.031 10.817 62.461 25.815 77.329 89.152 88.42 40.409 7.069 97.431 11.121 156.434 11.121h.008c58.218 0 112.087-3.778 151.665-10.634 62.476-10.862 77.36-25.853 88.405-89.167 14.671-83.834 14.869-224.928.442-308.092z"/><path fill="#3CF" d="M258.525 509.706h-.008c-59.003 0-116.025-4.052-156.434-11.121-63.337-11.091-78.335-25.959-89.152-88.42-14.404-83.149-14.183-224.212.48-308.031 11.06-63.299 25.937-78.297 88.405-89.152 39.64-6.886 93.615-10.687 151.978-10.687 58.881 0 115.781 4.045 156.091 11.098 63.314 11.083 78.305 25.959 89.152 88.42 14.427 83.164 14.229 224.258-.442 308.092-11.045 63.314-25.929 78.305-88.405 89.167-39.578 6.856-93.447 10.634-151.665 10.634zm-4.73-491.812c-57.495 0-110.518 3.717-149.312 10.458-55.88 9.704-65.782 19.713-75.7 76.461-14.419 82.38-14.633 220.997-.48 302.699 9.674 55.849 19.683 65.767 76.469 75.715 39.564 6.916 95.596 10.877 153.745 10.877h.008c57.365 0 110.274-3.687 149-10.39 55.895-9.72 65.797-19.729 75.715-76.492 14.412-82.403 14.61-221.036.442-302.745-9.72-55.872-19.729-65.782-76.477-75.715-39.472-6.907-95.398-10.868-153.41-10.868z"/><g fill="#3CF"><path d="M410.213 201.514l12.839 12.839 7.777-8.783-39.859-41.216-12.504-.335-20.951-20.616-17.566 17.901-55.748-51.357s-41.551-26.684-84.46 8.783-18.237 79.398-18.237 79.398l35.132 40.21 21.622-19.594-26.349-30.74s-18.237-25.343 5.413-47.3 48.993-10.14 48.993-10.14l51.692 51.357-17.901 17.231 56.419 57.441 1.357-.335 8.112-9.454 26.014 26.684 39.156-39.875-27.036-26.014 6.085-6.085z"/><path d="M245.778 267.433l-20.066-20.065 20.54-20.54 20.065 20.066zM272.602 252.501l20.066 20.065-20.54 20.54-20.065-20.066z"/><path d="M302.789 282.605l-20.616 19.594 16.927 20.776s18.237 25.343-5.398 47.3c-23.65 21.957-48.993 10.14-48.993 10.14l-51.692-51.357 17.901-17.231-56.418-57.44-1.357.335-8.112 9.454-26.014-26.684-39.172 39.875 27.036 26.014-6.084 6.084-12.839-12.839-7.777 8.783 39.859 41.216 12.504.335 20.951 20.616 17.566-17.901 55.748 51.357s41.551 26.684 84.46-8.783 18.237-79.398 18.237-79.398l-26.717-30.246z"/></g></svg>