<svg xmlns="http://www.w3.org/2000/svg" width="512" height="512" viewBox="0 0 512 512"><path fill="#FFF" d="M499.037 101.813c-10.847-62.461-25.838-77.337-89.152-88.42-40.31-7.053-97.21-11.098-156.091-11.098-58.363 0-112.338 3.801-151.978 10.687-62.468 10.855-77.345 25.853-88.405 89.152-14.663 83.819-14.884 224.882-.48 308.031 10.817 62.461 25.815 77.329 89.152 88.42 40.409 7.069 97.431 11.121 156.434 11.121h.008c58.218 0 112.087-3.778 151.665-10.634 62.476-10.862 77.36-25.853 88.405-89.167 14.671-83.834 14.869-224.928.442-308.092z"/><path fill="#3CF" d="M499.037 101.813c-10.847-62.461-25.838-77.337-89.152-88.42-40.31-7.053-97.21-11.098-156.091-11.098-58.363 0-112.338 3.801-151.978 10.687-62.468 10.855-77.345 25.853-88.405 89.152-14.663 83.819-14.884 224.882-.48 308.031 10.817 62.461 25.815 77.329 89.152 88.42 40.409 7.069 97.431 11.121 156.434 11.121h.008c58.218 0 112.087-3.778 151.665-10.634 62.476-10.862 77.36-25.853 88.405-89.167 14.671-83.834 14.869-224.928.442-308.092zM483.24 407.222c-9.918 56.763-19.82 66.772-75.715 76.492-38.726 6.703-91.635 10.39-149 10.39h-.008c-58.149 0-114.181-3.961-153.745-10.877-56.786-9.948-66.795-19.866-76.469-75.715-14.153-81.702-13.939-220.319.48-302.699 9.918-56.748 19.82-66.757 75.7-76.461 38.794-6.741 91.817-10.458 149.312-10.458 58.012 0 113.938 3.961 153.41 10.868 56.748 9.933 66.757 19.843 76.477 75.715 14.168 81.709 13.97 220.342-.442 302.745z"/><path fill="#3CF" d="M340.049 127.242l-84.508-49.429-84.508 49.429v94.075l84.508 49.429 84.508-49.429v-94.075zm-31.89 74.941l-52.618 31.89-52.618-31.89v-55.807l52.618-31.89 52.618 31.89v55.807zM80.147 289.88v94.075l81.319 49.429 79.725-49.429V289.88l-79.725-49.429-81.319 49.429zm132.342 74.941L161.466 399.9l-51.024-33.484v-57.402l51.024-33.484 51.024 31.89v57.401zm137.127-124.37l-81.319 49.429v94.075l81.319 49.429 81.319-49.429V289.88l-81.319-49.429zm51.023 124.37l-49.429 31.89-51.024-31.89v-55.807l51.024-31.89 49.429 31.89v55.807z"/></svg>