<svg xmlns="http://www.w3.org/2000/svg" width="512" height="512" viewBox="0 0 512 512"><path fill="#FFF" d="M499.037 101.813c-10.847-62.461-25.838-77.337-89.152-88.42-40.31-7.053-97.21-11.098-156.091-11.098-58.363 0-112.338 3.801-151.978 10.687-62.468 10.855-77.345 25.853-88.405 89.152-14.663 83.819-14.884 224.882-.48 308.031 10.817 62.461 25.815 77.329 89.152 88.42 40.409 7.069 97.431 11.121 156.434 11.121h.008c58.218 0 112.087-3.778 151.665-10.634 62.476-10.862 77.36-25.853 88.405-89.167 14.671-83.834 14.869-224.928.442-308.092z"/><path fill="#4BECBC" d="M499.037 101.813c-10.847-62.461-25.838-77.337-89.152-88.42-40.31-7.053-97.21-11.098-156.091-11.098-58.363 0-112.338 3.801-151.978 10.687-62.468 10.855-77.345 25.853-88.405 89.152-14.663 83.819-14.884 224.882-.48 308.031 10.817 62.461 25.815 77.329 89.152 88.42 40.409 7.069 97.431 11.121 156.434 11.121h.008c58.218 0 112.087-3.778 151.665-10.634 62.476-10.862 77.36-25.853 88.405-89.167 14.671-83.834 14.869-224.928.442-308.092zM483.24 407.222c-9.918 56.763-19.82 66.772-75.715 76.492-38.726 6.703-91.635 10.39-149 10.39h-.008c-58.149 0-114.181-3.961-153.745-10.877-56.786-9.948-66.795-19.866-76.469-75.715-14.153-81.702-13.939-220.319.48-302.699 9.918-56.748 19.82-66.757 75.7-76.461 38.794-6.741 91.817-10.458 149.312-10.458 58.012 0 113.938 3.961 153.41 10.868 56.748 9.933 66.757 19.843 76.477 75.715 14.168 81.709 13.97 220.342-.442 302.745z"/><path fill="#4BECBC" d="M419.722 254.341l16.095-35.408c9.657-19.314 0-41.846-19.314-51.503l-48.284-22.533-22.533-48.284c-9.657-19.314-32.189-27.361-51.503-19.314l-35.408 16.095-35.408-16.095c-19.314-9.657-41.846 0-51.503 19.314l-22.533 48.284-48.284 22.533c-19.314 9.657-27.361 32.189-19.314 51.503l16.095 35.408-16.095 35.408c-9.657 19.314 0 41.846 19.314 51.503l48.284 22.533 22.533 48.284c9.657 19.314 32.189 27.361 51.503 19.314l35.408-16.095 35.408 16.095c19.314 9.657 41.846 0 51.503-19.314l22.533-48.284 48.284-22.533c19.314-9.657 27.361-32.189 19.314-51.503l-16.095-35.408zM260.384 408.85L105.876 254.341 260.384 99.832l154.509 154.509L260.384 408.85z"/></svg>