<svg xmlns="http://www.w3.org/2000/svg" viewBox="0 0 1133.9 1133.9"><path fill="#FFF" d="M1104.4 225.5c-24-138.3-57.2-171.3-197.4-195.8C817.7 14 691.7 5.1 561.3 5.1c-129.2 0-248.8 8.4-336.6 23.7C86.4 52.8 53.4 86 28.9 226.2c-32.5 185.6-33 498-1.1 682.2 24 138.3 57.2 171.3 197.4 195.8 89.5 15.7 215.8 24.6 346.4 24.6 128.9 0 248.2-8.4 335.9-23.5 138.4-24.1 171.3-57.3 195.8-197.5 32.6-185.7 33.1-498.2 1.1-682.3z"/><path fill="#3CF" d="M1105.2 225.5c-24-138.3-57.2-171.3-197.4-195.8C818.4 14 692.4 5.1 562 5.1c-129.2 0-248.8 8.4-336.6 23.7C87.1 52.8 54.2 86 29.7 226.2c-32.5 185.6-33 498-1.1 682.2 24 138.3 57.2 171.3 197.4 195.8 89.5 15.7 215.8 24.6 346.4 24.6 128.9 0 248.2-8.4 335.9-23.5 138.4-24.1 171.3-57.3 195.8-197.5 32.6-185.7 33-498.2 1.1-682.3zm-35 676.3c-22 125.7-43.9 147.9-167.7 169.4-85.8 14.8-202.9 23-330 23-128.8 0-252.9-8.8-340.5-24.1-125.8-22-147.9-44-169.3-167.7-31.3-180.9-30.9-487.9 1.1-670.3 22-125.7 43.9-147.8 167.6-169.3C317.3 47.9 434.7 39.6 562 39.6c128.5 0 252.3 8.8 339.7 24.1 125.7 22 147.8 43.9 169.4 167.7 31.4 180.9 31 487.9-.9 670.4z"/><path fill="#FFF" d="M794 854.7H340.5c-31.3 0-56.7-25.4-56.7-56.7V344.5c0-31.3 25.4-56.7 56.7-56.7H794c31.3 0 56.7 25.4 56.7 56.7V798c0 31.3-25.4 56.7-56.7 56.7z"/><path fill="#3CF" d="M340.5 310.5c-18.8 0-34 15.3-34 34V798c0 18.8 15.3 34 34 34H794c18.8 0 34-15.3 34-34V344.5c0-18.8-15.3-34-34-34H340.5z"/><path fill="#FFF" d="M664.6 457.9H469.9c-46.4 0-84.1-37.7-84.1-84.1v-86h362.8v86c.1 46.3-37.6 84.1-84 84.1zM408.5 310.5v63.3c0 33.9 27.6 61.4 61.4 61.4h194.7c33.9 0 61.4-27.6 61.4-61.4v-63.3H408.5zM567.3 696c-37.5 0-68-30.5-68-68s30.5-68 68-68 68 30.5 68 68-30.5 68-68 68zm0-113.4c-25 0-45.4 20.3-45.4 45.4s20.3 45.4 45.4 45.4c25 0 45.4-20.3 45.4-45.4s-20.4-45.4-45.4-45.4z"/><path fill="#FFF" d="M459.6 389.8c-15.6 0-28.3-12.7-28.3-28.3s12.7-28.3 28.3-28.3 28.3 12.7 28.3 28.3-12.7 28.3-28.3 28.3zm0-34c-3.1 0-5.7 2.6-5.7 5.7s2.5 5.7 5.7 5.7c3.1 0 5.7-2.6 5.7-5.7-.1-3.1-2.6-5.7-5.7-5.7z"/></svg>