<svg xmlns="http://www.w3.org/2000/svg" viewBox="0 0 512 512"><path fill="#FFF" d="M499.037 101.813c-10.847-62.461-25.838-77.337-89.152-88.42-40.31-7.053-97.21-11.098-156.091-11.098-58.363 0-112.338 3.801-151.978 10.687-62.468 10.855-77.345 25.853-88.405 89.152-14.663 83.819-14.884 224.882-.48 308.031 10.817 62.461 25.815 77.329 89.152 88.42 40.409 7.069 97.431 11.121 156.434 11.121h.008c58.218 0 112.087-3.778 151.665-10.634 62.476-10.862 77.36-25.853 88.405-89.167 14.671-83.834 14.869-224.928.442-308.092z"/><g fill="#4BECBC"><path d="M499.037 101.813c-10.847-62.461-25.838-77.337-89.152-88.42-40.31-7.053-97.21-11.098-156.091-11.098-58.363 0-112.338 3.801-151.978 10.687-62.468 10.855-77.345 25.853-88.405 89.152-14.663 83.819-14.884 224.882-.48 308.031 10.817 62.461 25.815 77.329 89.152 88.42 40.409 7.069 97.431 11.121 156.434 11.121h.008c58.218 0 112.087-3.778 151.665-10.634 62.476-10.862 77.36-25.853 88.405-89.167 14.671-83.834 14.869-224.928.442-308.092zM483.24 407.222c-9.918 56.763-19.82 66.772-75.715 76.492-38.726 6.703-91.635 10.39-149 10.39h-.008c-58.149 0-114.181-3.961-153.745-10.877-56.786-9.948-66.795-19.866-76.469-75.715-14.153-81.702-13.939-220.319.48-302.699 9.918-56.748 19.82-66.757 75.7-76.461 38.794-6.741 91.817-10.458 149.312-10.458 58.012 0 113.938 3.961 153.41 10.868 56.748 9.933 66.757 19.843 76.477 75.715 14.168 81.709 13.97 220.342-.442 302.745z"/><path d="M280.518 123.651l-22.277 35.732-22.277-35.732h-89.4l-44.703 68.943 44.703 74.457h54.917l-32.64 49.597 44.697 71.701h89.405l40.221-71.701-28.16-49.597h50.432l44.704-74.457-44.703-68.943h-84.919zm-68.364 120.857l.69-1.035 45.054-55.038 42.641 56.073h-88.385z"/></g></svg>