<svg xmlns="http://www.w3.org/2000/svg" viewBox="0 0 512 512"><path fill="#FFF" d="M499.037 101.813c-10.847-62.461-25.838-77.337-89.152-88.42-40.31-7.053-97.21-11.098-156.091-11.098-58.363 0-112.338 3.801-151.978 10.687-62.468 10.855-77.345 25.853-88.405 89.152-14.663 83.819-14.884 224.882-.48 308.031 10.817 62.461 25.815 77.329 89.152 88.42 40.409 7.069 97.431 11.121 156.434 11.121h.008c58.218 0 112.087-3.778 151.665-10.634 62.476-10.862 77.36-25.853 88.405-89.167 14.671-83.834 14.869-224.928.442-308.092z"/><g fill="#C8F280"><path d="M500.096 101.334c-10.875-62.73-25.877-77.632-89.513-88.809-40.478-7.149-97.67-11.177-156.774-11.177-58.602 0-112.773 3.826-152.646 10.774C38.434 22.997 23.431 38.1 12.355 101.635c-14.701 84.177-15.003 225.848-.504 309.42 10.875 62.73 25.877 77.632 89.513 88.808 40.578 7.149 97.871 11.177 157.177 11.177 58.501 0 112.672-3.826 152.344-10.572 62.73-10.975 77.733-25.978 88.809-89.614 14.699-84.276 14.901-225.947.402-309.52zm-15.91 306.702c-9.968 56.99-19.836 67.059-76.021 76.826-38.866 6.746-92.03 10.472-149.625 10.472-58.4 0-114.686-4.027-154.458-10.975-57.091-9.968-67.059-19.936-76.827-76.02-14.197-82.062-13.996-221.316.504-304.084 9.968-56.991 19.937-67.059 76.021-76.827 38.967-6.746 92.232-10.471 150.028-10.471 58.299 0 114.484 4.027 153.955 10.975 56.991 9.968 67.059 19.937 76.826 76.021 14.298 82.062 14.096 221.316-.403 304.083z"/><path d="M368.997 238.877c-9.062 0-20.541 7.35-20.541 16.412v81.156H140.23c-9.062 0-16.412 16.11-16.412 25.172v47.526l32.825-32.825H373.63c9.062 0 15.506-16.11 15.506-25.172v-95.857c.1-9.062-11.077-16.412-20.139-16.412z"/><circle cx="205.779" cy="256.497" r="16.412"/><path d="M373.629 134.662h-233.4c-9.062 0-20.138 7.35-20.138 16.412v104.214c-.001 9.063 11.075 16.312 20.138 16.312 9.062 0 20.541-7.35 20.541-16.412v-80.25h212.859c9.062 0 16.412-10.673 16.412-19.735s-7.35-20.541-16.412-20.541z"/><circle cx="252.901" cy="256.497" r="16.412"/><circle cx="300.326" cy="256.497" r="16.412"/></g></svg>