<svg xmlns="http://www.w3.org/2000/svg" viewBox="0 0 512 512"><path fill="#FFF" d="M499.037 101.813c-10.847-62.461-25.838-77.337-89.152-88.42-40.31-7.053-97.21-11.098-156.091-11.098-58.363 0-112.338 3.801-151.978 10.687-62.468 10.855-77.345 25.853-88.405 89.152-14.663 83.819-14.884 224.882-.48 308.031 10.817 62.461 25.815 77.329 89.152 88.42 40.409 7.069 97.431 11.121 156.434 11.121h.008c58.218 0 112.087-3.778 151.665-10.634 62.476-10.862 77.36-25.853 88.405-89.167 14.671-83.834 14.869-224.928.442-308.092z"/><g fill="#3CF"><path d="M499.037 101.813c-10.847-62.461-25.838-77.337-89.152-88.42-40.31-7.053-97.21-11.098-156.091-11.098-58.363 0-112.338 3.801-151.978 10.687-62.468 10.855-77.345 25.853-88.405 89.152-14.663 83.819-14.884 224.882-.48 308.031 10.817 62.461 25.815 77.329 89.152 88.42 40.409 7.069 97.431 11.121 156.434 11.121h.008c58.218 0 112.087-3.778 151.665-10.634 62.476-10.862 77.36-25.853 88.405-89.167 14.671-83.834 14.869-224.928.442-308.092zM483.24 407.222c-9.918 56.763-19.82 66.772-75.715 76.492-38.726 6.703-91.635 10.39-149 10.39h-.008c-58.149 0-114.181-3.961-153.745-10.877-56.786-9.948-66.795-19.866-76.469-75.715-14.153-81.702-13.939-220.319.48-302.699 9.918-56.748 19.82-66.757 75.7-76.461 38.794-6.741 91.817-10.458 149.312-10.458 58.012 0 113.938 3.961 153.41 10.868 56.748 9.933 66.757 19.843 76.477 75.715 14.168 81.709 13.97 220.342-.442 302.745z"/><path d="M352.886 268.62c-9.057.076-17.597 2.196-25.341 5.663l-32.815-46.134c12.201-10.213 20.06-25.049 19.987-41.618-.133-30.684-26.741-55.57-59.65-55.57-32.73.161-59.216 25.327-59.088 56.043.086 16.583 8.076 31.315 20.36 41.504l-32.343 46.419c-7.674-3.396-16.137-5.469-25.426-5.469-32.696.162-59.222 25.294-59.097 56.091.133 30.626 26.751 55.491 59.653 55.491 29.879-.129 54.329-21.144 58.282-48.223l77.284-.324c4.235 26.969 28.768 47.739 58.746 47.739 32.738-.15 59.26-25.294 59.091-56.045-.124-30.689-26.785-55.567-59.643-55.567zm-58.279 48.218l-77.29.32c-2.083-13.341-9.137-25.127-19.425-33.643l32.312-46.457c7.616 3.41 15.981 5.474 24.866 5.474l.541-.003c9.112-.031 17.65-2.153 25.386-5.667l32.774 46.179c-10.237 8.635-17.214 20.409-19.164 33.797z"/></g></svg>