<svg xmlns="http://www.w3.org/2000/svg" viewBox="0 0 512 512"><path fill="#FFF" d="M499.037 101.813c-10.847-62.461-25.838-77.337-89.152-88.42-40.31-7.053-97.21-11.098-156.091-11.098-58.363 0-112.338 3.801-151.978 10.687-62.468 10.855-77.345 25.853-88.405 89.152-14.663 83.819-14.884 224.882-.48 308.031 10.817 62.461 25.815 77.329 89.152 88.42 40.409 7.069 97.431 11.121 156.434 11.121h.008c58.218 0 112.087-3.778 151.665-10.634 62.476-10.862 77.36-25.853 88.405-89.167 14.671-83.834 14.869-224.928.442-308.092z"/><g fill="#3CF"><path d="M499.037 101.813c-10.847-62.461-25.838-77.337-89.152-88.42-40.31-7.053-97.21-11.098-156.091-11.098-58.363 0-112.338 3.801-151.978 10.687-62.468 10.855-77.345 25.853-88.405 89.152-14.663 83.819-14.884 224.882-.48 308.031 10.817 62.461 25.815 77.329 89.152 88.42 40.409 7.069 97.431 11.121 156.434 11.121h.008c58.218 0 112.087-3.778 151.665-10.634 62.476-10.862 77.36-25.853 88.405-89.167 14.671-83.834 14.869-224.928.442-308.092zM483.24 407.222c-9.918 56.763-19.82 66.772-75.715 76.492-38.726 6.703-91.635 10.39-149 10.39h-.008c-58.149 0-114.181-3.961-153.745-10.877-56.786-9.948-66.795-19.866-76.469-75.715-14.153-81.702-13.939-220.319.48-302.699 9.918-56.748 19.82-66.757 75.7-76.461 38.794-6.741 91.817-10.458 149.312-10.458 58.012 0 113.938 3.961 153.41 10.868 56.748 9.933 66.757 19.843 76.477 75.715 14.168 81.709 13.97 220.342-.442 302.745z"/><path d="M296.636 308.251c-4.975 0-9.016 3.789-9.016 8.464 0 4.674 4.041 8.479 9.016 8.479 4.946 0 8.995-3.804 8.995-8.479-.001-4.675-4.049-8.464-8.995-8.464z"/><path d="M352.138 191.353c-3.48 0-7.052.163-10.725.502-.912-3.436-18.238-68.704-89.205-68.709-5.058 0-10.376.348-15.982 1.095-84.281 11.245-74.062 83.47-73.525 87.272-.084-.006-1.69-.127-4.598-.127-16.457 0-71.994 4.086-82.159 58.507-12.844 68.831 58.656 94.734 84.972 94.734H342.02c2.984-.011 59.666-.232 86.552-53.049 25.661-50.366-4.605-120.225-76.434-120.225zm-41.599 141.836H189.21c-6.875 0-10.277-3.955-10.277-10.419v-12.989c0-6.465 3.402-9.525 10.277-9.525h121.328c6.899 0 13.838 3.061 13.838 9.525l.001 12.989c0 6.464-6.94 10.419-13.838 10.419zm0-40.393H189.21c-6.875 0-10.277-3.955-10.277-10.419v-12.989c0-6.465 3.402-9.525 10.277-9.525h121.328c6.899 0 13.838 3.061 13.838 9.525l.001 12.989c0 6.464-6.94 10.419-13.838 10.419zm0-40.439H189.21c-6.875 0-10.277-1.741-10.277-8.209v-12.7c0-6.466 3.402-11.746 10.277-11.746h121.328c6.899 0 13.838 5.28 13.838 11.746l.001 12.7c0 6.468-6.94 8.209-13.838 8.209z"/><path d="M296.636 267.403c-4.975 0-9.016 3.804-9.016 8.479 0 4.675 4.041 8.475 9.016 8.475 4.946 0 8.995-3.8 8.995-8.475s-4.049-8.479-8.995-8.479zM296.636 229.465c-4.975 0-9.016 3.525-9.016 8.196 0 4.675 4.041 8.471 9.016 8.471 4.946 0 8.995-3.796 8.995-8.471-.001-4.671-4.049-8.196-8.995-8.196z"/></g></svg>