<svg xmlns="http://www.w3.org/2000/svg" viewBox="0 0 64 64"><path fill="#FFF" d="M62.4 12.7c-1.4-7.8-3.2-9.6-11.2-11C46.2.8 39 .3 31.7.3c-7.3 0-14 .5-19 1.3C4.9 3 3.1 4.9 1.7 12.8-.1 23.3-.2 40.9 1.6 51.3 3 59.1 4.8 61 12.7 62.4c5.1.9 12.2 1.4 19.6 1.4 7.3 0 14-.5 19-1.3 7.8-1.4 9.7-3.2 11-11.2 1.9-10.5 1.9-28.2.1-38.6z"/><path fill="#3CF" d="M62.4 12.7c-1.4-7.8-3.2-9.6-11.2-11C46.2.8 39 .3 31.7.3c-7.3 0-14 .5-19 1.3C4.9 3 3.1 4.9 1.7 12.8-.1 23.3-.2 40.9 1.6 51.3 3 59.1 4.8 61 12.7 62.4c5.1.9 12.2 1.4 19.6 1.4 7.3 0 14-.5 19-1.3 7.8-1.4 9.7-3.2 11-11.2 1.9-10.5 1.9-28.2.1-38.6zm-2 38.2c-1.2 7.1-2.5 8.3-9.5 9.6-4.8.8-11.5 1.3-18.6 1.3-7.3 0-14.3-.5-19.2-1.4-7.1-1.2-8.4-2.5-9.6-9.5-1.7-10.2-1.7-27.5.1-37.8C4.9 6 6.1 4.8 13.1 3.5c4.8-.8 11.5-1.3 18.6-1.3 7.3 0 14.3.5 19.2 1.4 7.1 1.2 8.3 2.5 9.6 9.5 1.7 10.2 1.7 27.5-.1 37.8z"/><g fill="#3CF"><path d="M16.14 25.366l-2.757-2.758 1.202-1.202 2.758 2.757zM19.754 21.77l-2.758-2.758 1.202-1.203 2.758 2.758zM23.348 18.202l-2.758-2.758 1.202-1.202L24.55 17z"/></g><g fill="#3CF"><path d="M39.949 18.026l-1.202-1.202 2.757-2.758 1.202 1.202zM43.546 21.636l-1.202-1.202 2.757-2.758 1.202 1.202zM47.113 25.233L45.91 24.03l2.757-2.758 1.202 1.202z"/></g><g fill="#3CF"><path d="M22.493 49.934L21.29 48.73l2.757-2.757 1.202 1.202zM18.896 46.324l-1.202-1.202 2.757-2.758 1.202 1.202zM15.307 42.735l-1.202-1.202 2.758-2.757 1.202 1.202z"/></g><path fill="#3CF" d="M48.544 43.425l-2.757-2.758 1.202-1.202 2.757 2.758zM44.947 46.992l-2.758-2.757 1.202-1.202 2.758 2.757z"/><path fill="#3CF" d="M47 39.5l7.2-7.2L31.7 9.8 17.4 24.2l2.8 2.8-1.2 1.2-2.8-2.8-6.3 6.3L24.1 46l2.8-2.8 1.2 1.2-2.8 2.8 7 7 6.3-6.3 2.8 2.8 1.2-1.2-2.8-2.8-1.2 1.2-2.8-2.8 1.2-1.2 2.8 2.8 2.4-2.4-2.8-2.8 1.2-1.2 2.8 2.8 2.4-2.4-2.8-2.8 1.2-1.2 2.8 2.8zM24.6 17l2.8 2.8-1.3 1.2-2.8-2.8 1.3-1.2zm-4.8 4.8l1.2-1.2 2.8 2.8-1.2 1.2-2.8-2.8zm-2.9 17l2.8-2.8 1.2 1.2-2.8 2.8-1.2-1.2zm4.8 4.8l-1.2-1.2 2.8-2.8 1.2 1.2-2.8 2.8zm15.4-7.1c-2 2.2-5.2 3-7.9 1.9-.2-.1-.3-.1-.4-.2l-.6 1.4-1.5-2.7c-1.2-1.2-2-2.8-2.2-4.5-.2-1.8.4-3.6 1.7-5 2-2.2 5.2-3 7.9-1.9.2.1.3.1.4.2l.6-1.4 1.5 2.7c1.2 1.2 2 2.8 2.2 4.5.1 1.8-.5 3.6-1.7 5zm.1-15.7L36 19.6l2.8-2.8L40 18l-2.8 2.8zm3.6 3.6l-1.2-1.2 2.8-2.8 1.2 1.2-2.8 2.8zm5.1-.3l1.2 1.2-2.8 2.8-1.2-1.2 2.8-2.8zm-10.5 4.2l-2.2.6.7-1.6c-2.2-1.1-4.8-.6-6.4 1.2-.9 1-1.3 2.4-1.2 3.7.1 1.2.7 2.4 1.6 3.3l2.2-.6-.7 1.6c2.2 1.1 4.8.6 6.4-1.2.9-1 1.3-2.3 1.2-3.7-.1-1.2-.7-2.3-1.6-3.3z"/></svg>