<svg xmlns="http://www.w3.org/2000/svg" viewBox="0 0 64 64"><path fill="#FFF" d="M62.4 12.7c-1.4-7.8-3.2-9.6-11.2-11C46.2.8 39 .3 31.7.3c-7.3 0-14 .5-19 1.3C4.9 3 3.1 4.9 1.7 12.8-.1 23.3-.2 40.9 1.6 51.3 3 59.1 4.8 61 12.7 62.4c5.1.9 12.2 1.4 19.6 1.4 7.3 0 14-.5 19-1.3 7.8-1.4 9.7-3.2 11-11.2 1.9-10.5 1.9-28.2.1-38.6z"/><path fill="#3CF" d="M62.6 12.6c-1.4-7.9-3.2-9.7-11.2-11.1C46.3.6 39.2.1 31.7.1c-7.3 0-14.1.5-19.1 1.4C4.7 2.8 2.9 4.7 1.5 12.6-.4 23.2-.4 40.9 1.4 51.4c1.4 7.9 3.2 9.7 11.2 11.1 5.1.9 12.3 1.4 19.7 1.4 7.3 0 14.1-.5 19.1-1.3 7.9-1.4 9.7-3.2 11.1-11.2 1.9-10.6 1.9-28.3.1-38.8zm-2 38.4c-1.2 7.1-2.5 8.4-9.5 9.6-4.9.9-11.6 1.4-18.8 1.4C25 62 18 61.5 13 60.6c-7.2-1.2-8.4-2.5-9.6-9.5-1.8-10.3-1.8-27.8 0-38.1 1.2-7.1 2.5-8.4 9.5-9.6C17.8 2.5 24.5 2 31.7 2 39 2 46.1 2.5 51 3.4c7.1 1.2 8.4 2.5 9.6 9.5 1.8 10.3 1.8 27.8 0 38.1zM42 19.8l.1 2.4c.8 0 1.4.1 2.2.3.6.9 1.3 2.7 1.8 5.1h-3.8v.6h3.9c.2 1.1.3 2.4.3 3.8h-4.2v.6h4.2c0 1.4-.1 2.7-.3 3.8h-3.9v.6H46c-.5 2.4-1.2 4.1-1.8 5.1-.7.2-1.3.3-2.1.3l-.1 2.4c6.8-.2 12.1-5.7 12.1-12.5S48.8 19.9 42 19.8zm3.1 21.9c.5-1 1.2-2.6 1.6-4.8h3.7c-1.1 2.2-3 4-5.3 4.8zm5.7-5.3h-3.9c.2-1.1.3-2.4.3-3.8h4.5c-.1 1.3-.4 2.7-.9 3.8zm.9-4.4h-4.5c0-1.4-.1-2.7-.3-3.8h4c.4 1.1.7 2.5.8 3.8zm-5-4.4c-.4-2.1-1.1-3.8-1.6-4.8 2.3.9 4.1 2.7 5.3 4.8h-3.7zM38.9 42c.7.2 1.9.3 2.7.3V37h-4.4c.4 2.3 1.1 4.1 1.7 5zM37 36.4h4.5v-3.8h-4.8c0 1.4.1 2.7.3 3.8zm-.3-4.4h4.8v-3.8H37c-.2 1.1-.3 2.4-.3 3.8zm-7.6.3c0-6.9 5.7-12.5 12.6-12.5h.3V12l-16 2.5v35.6l16 2.5v-7.8h-.3c-7 0-12.6-5.6-12.6-12.5zm6.8.3h-4.4c0 1.3.4 2.7.9 3.8h3.8c-.1-1.1-.2-2.4-.3-3.8zm1.2-5h4.4v-5.4c-.8 0-1.9.2-2.7.4-.5.9-1.2 2.6-1.7 5zm-.9.6h-3.9c-.5 1.1-.8 2.5-.9 3.8h4.4c.2-1.4.3-2.7.4-3.8zM32.8 37c1.1 2.1 3 3.9 5.2 4.7-.5-1-1.2-2.6-1.6-4.7h-3.6zm5.1-14.1c-2.2.9-4 2.6-5.2 4.7h3.6c.5-2.1 1.1-3.8 1.6-4.7zM14 43.9h2v-2h-2v2zm-4 0h2v-2h-2v2zm8.7-3.1l1.1 1.1H18v2h1.8l-1 1.4 1.2.9 3-3.4-3.1-3.1-1.2 1.1zM14 31.9h-2v1.9h2v-1.9zm-5.9 1.9H10v-1.9H8.1v1.9zm9.7-4.4l2.6 2.5h-4.5v1.9h4.5l-2.6 2.5 1.2 1.2 4.6-4.6-4.6-4.6-1.2 1.1zM14 22h-3.9v2H14v-2zm4.8 3l1.2 1.2 3.2-3.2-3.2-3.2-1.2 1.2 1.2 1h-4v2h4l-1.2 1z"/></svg>