<svg xmlns="http://www.w3.org/2000/svg" viewBox="0 0 512 512"><path fill="#FFF" d="M499.037 101.813c-10.847-62.461-25.838-77.337-89.152-88.42-40.31-7.053-97.21-11.098-156.091-11.098-58.363 0-112.338 3.801-151.978 10.687-62.468 10.855-77.345 25.853-88.405 89.152-14.663 83.819-14.884 224.882-.48 308.031 10.817 62.461 25.815 77.329 89.152 88.42 40.409 7.069 97.431 11.121 156.434 11.121h.008c58.218 0 112.087-3.778 151.665-10.634 62.476-10.862 77.36-25.853 88.405-89.167 14.671-83.834 14.869-224.928.442-308.092z"/><path fill="#C8F280" d="M258.525 509.706h-.008c-59.003 0-116.025-4.052-156.434-11.121-63.337-11.091-78.335-25.959-89.152-88.42-14.404-83.149-14.183-224.212.48-308.031 11.06-63.299 25.937-78.297 88.405-89.152 39.64-6.886 93.615-10.687 151.978-10.687 58.881 0 115.781 4.045 156.091 11.098 63.314 11.083 78.305 25.959 89.152 88.42 14.427 83.164 14.229 224.258-.442 308.092-11.045 63.314-25.929 78.305-88.405 89.167-39.578 6.856-93.447 10.634-151.665 10.634zm-4.73-491.812c-57.495 0-110.518 3.717-149.312 10.458-55.88 9.704-65.782 19.713-75.7 76.461-14.419 82.38-14.633 220.997-.48 302.699 9.674 55.849 19.683 65.767 76.469 75.715 39.564 6.916 95.596 10.877 153.745 10.877h.008c57.365 0 110.274-3.687 149-10.39 55.895-9.72 65.797-19.729 75.715-76.492 14.412-82.403 14.61-221.036.442-302.745-9.72-55.872-19.729-65.782-76.477-75.715-39.472-6.907-95.398-10.868-153.41-10.868z"/><path fill="#C8F280" d="M361.473 117.286a54.166 54.166 0 0 1 16.724 2.643 51.009 51.009 0 0 1 7.88 3.315 48.032 48.032 0 0 1 7.242 4.658c4.569 3.565 8.112 7.697 10.6 12.126 2.501 4.449 3.942 9.199 4.296 13.973a31.099 31.099 0 0 1-2.253 14.166c-1.875 4.574-4.886 8.878-9.057 12.617a40.944 40.944 0 0 1-6.805 4.93 45.27 45.27 0 0 1-7.702 3.535 49.633 49.633 0 0 1-8.327 2.125c-2.85.474-5.758.71-8.68.71a54.649 54.649 0 0 1-8.275-.634 54.743 54.743 0 0 1-4.09-.792 52.738 52.738 0 0 1-4.019-1.108l-36.574 32.259a51.854 51.854 0 0 1 5.919 12.917 49.577 49.577 0 0 1 2.092 13.716 49.5 49.5 0 0 1-1.831 13.845 51.557 51.557 0 0 1-5.852 13.272l39.363 34.003a48.268 48.268 0 0 1 4.635-1.596 51.004 51.004 0 0 1 4.775-1.14c1.61-.303 3.24-.53 4.877-.682a53.885 53.885 0 0 1 4.942-.228c3.081 0 6.174.264 9.24.791a54.695 54.695 0 0 1 9.068 2.371 53.956 53.956 0 0 1 8.642 3.967 52.692 52.692 0 0 1 7.953 5.577c5.026 4.27 8.934 9.224 11.694 14.535 2.772 5.335 4.387 11.035 4.813 16.764.427 5.759-.346 11.547-2.359 17.018-2.022 5.501-5.292 10.677-9.84 15.176a45.02 45.02 0 0 1-7.432 5.933 47.267 47.267 0 0 1-8.43 4.257 50.426 50.426 0 0 1-9.128 2.563 53.202 53.202 0 0 1-9.524.855 54.606 54.606 0 0 1-19.007-3.418 53.453 53.453 0 0 1-8.875-4.257 52.262 52.262 0 0 1-8.054-5.933c-4.123-3.697-7.432-7.853-9.923-12.268-2.479-4.398-4.146-9.053-4.997-13.77a41.276 41.276 0 0 1-.117-14.091 40.294 40.294 0 0 1 4.711-13.29l-37.771-33.198a66.775 66.775 0 0 1-8.365 4.145 70.032 70.032 0 0 1-8.864 2.972 72.879 72.879 0 0 1-9.201 1.786 73.92 73.92 0 0 1-17.244.176 73.026 73.026 0 0 1-7.775-1.262 70.681 70.681 0 0 1-7.574-2.095 68.106 68.106 0 0 1-7.277-2.928l-40.53 35.747a40.364 40.364 0 0 1 2.658 12.294 41.803 41.803 0 0 1-1.234 12.664 44.505 44.505 0 0 1-5.164 12.213c-2.385 3.908-5.427 7.589-9.124 10.904a52.385 52.385 0 0 1-8.053 5.933 53.45 53.45 0 0 1-8.875 4.257 54.664 54.664 0 0 1-19.009 3.418c-3.206 0-6.396-.285-9.522-.855a50.429 50.429 0 0 1-9.126-2.563 47.232 47.232 0 0 1-8.43-4.257 44.917 44.917 0 0 1-7.432-5.933c-4.547-4.499-7.817-9.675-9.84-15.176a40.516 40.516 0 0 1-2.36-17.018c.426-5.728 2.04-11.429 4.814-16.764 2.76-5.31 6.667-10.265 11.694-14.535a52.46 52.46 0 0 1 7.956-5.575 53.5 53.5 0 0 1 8.639-3.967 54.622 54.622 0 0 1 18.306-3.162c2.167 0 4.326.129 6.465.39 2.137.262 4.254.652 6.334 1.175a49.574 49.574 0 0 1 6.117 1.956 47.585 47.585 0 0 1 5.809 2.746l37.008-32.075c-3.693-4.809-6.435-9.993-8.234-15.357a49.519 49.519 0 0 1-2.586-16.343 49.724 49.724 0 0 1 2.903-16.16c1.861-5.218 4.613-10.237 8.246-14.875l-34.108-29.979a51.844 51.844 0 0 1-5.288 2.048 53.573 53.573 0 0 1-11.07 2.343 54.511 54.511 0 0 1-5.636.293c-2.92 0-5.827-.237-8.677-.71s-5.639-1.182-8.327-2.126a45.043 45.043 0 0 1-7.703-3.535 40.874 40.874 0 0 1-6.803-4.926c-4.171-3.739-7.184-8.043-9.059-12.617a31.115 31.115 0 0 1-2.253-14.166c.354-4.774 1.796-9.524 4.296-13.973 2.491-4.429 6.034-8.561 10.602-12.126a47.982 47.982 0 0 1 7.242-4.658 51.05 51.05 0 0 1 7.88-3.315 53.681 53.681 0 0 1 8.277-1.983c2.802-.441 5.63-.66 8.446-.66s5.621.218 8.374.66c2.755.44 5.46 1.101 8.071 1.983a45.5 45.5 0 0 1 7.532 3.315 41.578 41.578 0 0 1 6.755 4.658c3.223 2.736 5.803 5.809 7.745 9.093a31.704 31.704 0 0 1 3.917 10.404c.668 3.611.686 7.315.061 10.979-.627 3.677-1.905 7.315-3.833 10.786l35.568 30.724a68.116 68.116 0 0 1 7.43-3.058 70.531 70.531 0 0 1 7.719-2.178 72.358 72.358 0 0 1 7.909-1.306 73.865 73.865 0 0 1 17.415.167 72.532 72.532 0 0 1 9.251 1.805 69.672 69.672 0 0 1 8.939 3.015 66.542 66.542 0 0 1 8.466 4.235l33.445-28.988c-2.764-3.66-4.73-7.597-5.895-11.638-1.161-4.022-1.527-8.143-1.098-12.188a31.452 31.452 0 0 1 3.649-11.683c2-3.691 4.783-7.137 8.355-10.171a41.562 41.562 0 0 1 6.753-4.658 45.537 45.537 0 0 1 7.532-3.315 49.959 49.959 0 0 1 8.071-1.983 53.404 53.404 0 0 1 8.376-.656z"/></svg>