<svg xmlns="http://www.w3.org/2000/svg" viewBox="0 0 64 64"><path fill="#FA4D45" d="M62.3 12.5C61 4.7 59.1 2.8 51.1 1.4 46.1.5 38.9 0 31.6 0c-7.3 0-14.1.5-19.1 1.3C4.7 2.7 2.8 4.6 1.4 12.5-.4 23-.5 40.7 1.3 51.2c1.4 7.8 3.2 9.7 11.2 11.1 5.1.9 12.2 1.4 19.6 1.4 7.3 0 14.1-.5 19-1.3 7.8-1.4 9.7-3.2 11.1-11.2 1.9-10.6 1.9-28.3.1-38.7zm-2 38.3c-1.2 7.1-2.5 8.4-9.5 9.6-4.9.8-11.5 1.3-18.7 1.3-7.3 0-14.3-.5-19.3-1.4-7.1-1.2-8.4-2.5-9.6-9.5-1.8-10.3-1.7-27.6.1-38 1.2-7.1 2.5-8.4 9.5-9.6C17.7 2.5 24.4 2 31.6 2c7.3 0 14.3.5 19.2 1.4 7.1 1.2 8.4 2.5 9.6 9.5 1.8 10.2 1.7 27.6-.1 37.9z"/><path fill="#FA4D45" d="M19.3 24.1c1.4-2.2 3.4-4 5.7-5.3-.5 1.5-1.1 3.4-1.6 5.8h3.8c.4-2.3 1-4.8 1.8-7.3h-.2c.9-.2 1.9-.3 2.9-.3s2 .1 3 .3c.8 2.4 1.4 5 1.8 7.2h3.8c-.4-2.3-1-4.2-1.5-5.7 2.3 1.2 4.2 3 5.5 5.2 0 .1.1.3.1.5h4.9c-2.8-6.9-9.6-11.7-17.6-11.7-7.9 0-14.7 4.9-17.6 11.7H19c.1 0 .2-.3.3-.4zM39 44.6c.4-1.2.7-2.3 1-3.4h-3.8c-.6 2.7-1.3 4.5-1.5 5.1-.9.2-1.9.3-2.9.3-.9 0-1.8-.1-2.7-.3-.1-.2-.8-2-1.5-5.1h-3.8c.3 1.2.6 2.4 1 3.6-1.7-.9-3.1-2.1-4.4-3.6h-5.2c3.3 5.7 9.4 9.5 16.5 9.5s13.2-3.8 16.5-9.5H43c-1.1 1.4-2.4 2.5-4 3.4z"/><path fill="#FA4D45" d="M10.1 11.4v10.8h3.8v-7h7v-3.8zM53.6 11.4v10.8h-3.8v-7h-6.9v-3.8zM10.1 52.7V42h3.8v6.9h6.9v3.8zM53.6 52.7V42h-3.8v6.9h-7v3.8z"/><g fill="#FA4D45"><path d="M13.6 28.6H15v3.3h1.9v-3.3h1.4v8.7h-1.4v-3.6H15v3.6h-1.4v-8.7zM20.6 30.3h-1.5v-1.7h4.5v1.7H22v6.9h-1.4v-6.9zM25.6 30.3H24v-1.7h4.5v1.7h-1.6v6.9h-1.4v-6.9zM29.4 28.6h2c1.3 0 2.3.7 2.3 2.8 0 2.1-1.1 3-2.3 3h-.7v2.9h-1.4v-8.7zm2 4.1c.7 0 1-.5 1-1.3 0-.9-.4-1.2-1-1.2h-.6v2.5h.6zM34.7 28.6h1.6c1.7 0 2.9 1.3 2.9 4.3s-1.2 4.4-2.8 4.4h-1.7v-8.7zm1.5 6.9c.9 0 1.6-.6 1.6-2.7s-.7-2.6-1.6-2.6H36v5.3h.2zM40.3 28.6h1.4l1.4 4.1.6 1.9c-.1-.9-.2-2.2-.2-3.2v-2.9h1.3v8.7h-1.4L42 33l-.6-1.9c.1 1 .2 2.2.2 3.2v2.9h-1.3v-8.6zM45.8 36.1l.8-1.4c.4.5.9.9 1.4.9.5 0 .7-.3.7-.8s-.3-.7-.8-1l-.7-.5c-.6-.3-1.2-1-1.2-2.3 0-1.5.9-2.6 2.1-2.6.7 0 1.4.4 1.9 1.1l-.7 1.3c-.4-.4-.7-.7-1.2-.7-.4 0-.7.3-.7.7 0 .5.4.7.9 1l.7.4c.7.4 1.1 1.2 1.1 2.4 0 1.4-.8 2.7-2.2 2.7-.7.1-1.5-.3-2.1-1.2z"/></g></svg>