<svg xmlns="http://www.w3.org/2000/svg" viewBox="0 0 512 512"><path fill="#FFF" d="M499.037 101.813c-10.847-62.461-25.838-77.337-89.152-88.42-40.31-7.053-97.21-11.098-156.091-11.098-58.363 0-112.338 3.801-151.978 10.687-62.468 10.855-77.345 25.853-88.405 89.152-14.663 83.819-14.884 224.882-.48 308.031 10.817 62.461 25.815 77.329 89.152 88.42 40.409 7.069 97.431 11.121 156.434 11.121h.008c58.218 0 112.087-3.778 151.665-10.634 62.476-10.862 77.36-25.853 88.405-89.167 14.671-83.834 14.869-224.928.442-308.092z"/><g fill="#41E3BE"><path d="M501.192 100.55c-11-62.9-26.1-77.9-89.9-89.1-40.7-7.1-98-11.2-157.4-11.2-58.8 0-113.2 3.9-153.2 10.8-63 11-78 26.1-89.1 89.9-14.8 84.5-15 226.7-.5 310.5 10.9 62.9 26.1 77.9 89.9 89.1 40.7 7.1 98.2 11.2 157.7 11.2 58.7 0 113-3.8 153-10.7 63-11 78-26.1 89.1-89.9 14.7-84.5 14.9-226.8.4-310.6zm-15.9 307.9c-10 57.2-20 67.3-76.3 77.1-39 6.8-92.4 10.5-150.2 10.5-58.6 0-115.1-4-155-11-57.3-10-67.3-20-77.1-76.3-14.3-82.4-14-222.2.5-305.2 10-57.2 20-67.3 76.3-77.1 39.1-6.8 92.5-10.5 150.5-10.5 58.4 0 114.8 4 154.6 11 57.2 10 67.3 20 77.1 76.3 14.3 82.4 14.1 222.1-.4 305.2z"/><path d="M122.892 122.75h77.8l14.2-26.5h-118.4v119l26.4-14.2zM122.892 389.25v-77.6l-26.4-14.4v118.5h118.3l-14.2-26.5zM389.492 389.25h-78.2l-14.1 26.5h118.7v-118.4l-26.4 14.1zM389.492 122.75v77.4l26.4 14.2V96.25h-118.5l14.2 26.5zM267.092 155.75l58.5 30.8-69.4-131.9-69.4 131.9 58.5-30.8c6.8-3.6 15-3.6 21.8 0zM245.292 356.25l-58.5-30.8 69.4 131.9 69.4-131.9-58.5 30.8c-6.8 3.6-15 3.6-21.8 0zM356.392 245.15c3.6 6.8 3.6 15 0 21.8l-30.8 58.5 131.9-69.4-131.9-69.5 30.8 58.6zM155.992 245.15l30.8-58.5-131.9 69.3 131.9 69.4-30.8-58.5c-3.6-6.8-3.6-14.9 0-21.7z"/></g></svg>