<svg xmlns="http://www.w3.org/2000/svg" viewBox="0 0 512 512"><path fill="#FFF" d="M499.037 101.813c-10.847-62.461-25.838-77.337-89.152-88.42-40.31-7.053-97.21-11.098-156.091-11.098-58.363 0-112.338 3.801-151.978 10.687-62.468 10.855-77.345 25.853-88.405 89.152-14.663 83.819-14.884 224.882-.48 308.031 10.817 62.461 25.815 77.329 89.152 88.42 40.409 7.069 97.431 11.121 156.434 11.121h.008c58.218 0 112.087-3.778 151.665-10.634 62.476-10.862 77.36-25.853 88.405-89.167 14.671-83.834 14.869-224.928.442-308.092z"/><path fill="#4BECBC" d="M499.037 101.813c-10.847-62.461-25.838-77.337-89.152-88.42-40.31-7.053-97.21-11.098-156.091-11.098-58.363 0-112.338 3.801-151.978 10.687-62.468 10.855-77.345 25.853-88.405 89.152-14.663 83.819-14.884 224.882-.48 308.031 10.817 62.461 25.815 77.329 89.152 88.42 40.409 7.069 97.431 11.121 156.434 11.121h.008c58.218 0 112.087-3.778 151.665-10.634 62.476-10.862 77.36-25.853 88.405-89.167 14.671-83.834 14.869-224.928.442-308.092zM483.24 407.222c-9.918 56.763-19.82 66.772-75.715 76.492-38.726 6.703-91.635 10.39-149 10.39h-.008c-58.149 0-114.181-3.961-153.745-10.877-56.786-9.948-66.795-19.866-76.469-75.715-14.153-81.702-13.939-220.319.48-302.699 9.918-56.748 19.82-66.757 75.7-76.461 38.794-6.741 91.817-10.458 149.312-10.458 58.012 0 113.938 3.961 153.41 10.868 56.748 9.933 66.757 19.843 76.477 75.715 14.168 81.709 13.97 220.342-.442 302.745z"/><g fill="#4BECBC"><path d="M254.525 143.766l41.887 13.637 25.234-14.547-66.626-24.325-66.116 23.719 25.745 15.153zM255.02 222.658l-41.887-13.638-25.234 14.547 66.626 24.325 66.116-23.735-25.744-15.137zM194.264 202.321l-47.757-19.173 47.948-17.45-25.744-15.217-88.32 32.667 86.804 32.3zM364.506 183.148l-47.773 19.173 27.069 13.127 86.819-32.3-88.335-32.667-25.744 15.217z"/><path d="M255.02 298.456l175.266-67.552v-35.027L255.02 263.635 79.753 195.111l.383 34.773z"/><path d="M80.136 243.107l.367 34.772 174.9 68.572L430.669 278.9v-35.028l-175.266 67.759z"/><path d="M80.136 291.517l.367 34.757 174.9 68.588 175.266-67.551v-35.044l-175.266 67.759z"/></g></svg>