<svg xmlns="http://www.w3.org/2000/svg" viewBox="0 0 512 512"><path fill="#FFF" d="M499.037 101.813c-10.847-62.461-25.838-77.337-89.152-88.42-40.31-7.053-97.21-11.098-156.091-11.098-58.363 0-112.338 3.801-151.978 10.687-62.468 10.855-77.345 25.853-88.405 89.152-14.663 83.819-14.884 224.882-.48 308.031 10.817 62.461 25.815 77.329 89.152 88.42 40.409 7.069 97.431 11.121 156.434 11.121h.008c58.218 0 112.087-3.778 151.665-10.634 62.476-10.862 77.36-25.853 88.405-89.167 14.671-83.834 14.869-224.928.442-308.092z"/><g fill="#3CF"><path d="M499.037 101.813c-10.847-62.461-25.838-77.337-89.152-88.42-40.31-7.053-97.21-11.098-156.091-11.098-58.363 0-112.338 3.801-151.978 10.687-62.468 10.855-77.345 25.853-88.405 89.152-14.663 83.819-14.884 224.882-.48 308.031 10.817 62.461 25.815 77.329 89.152 88.42 40.409 7.069 97.431 11.121 156.434 11.121h.008c58.218 0 112.087-3.778 151.665-10.634 62.476-10.862 77.36-25.853 88.405-89.167 14.671-83.834 14.869-224.928.442-308.092zM483.24 407.222c-9.918 56.763-19.82 66.772-75.715 76.492-38.726 6.703-91.635 10.39-149 10.39h-.008c-58.149 0-114.181-3.961-153.745-10.877-56.786-9.948-66.795-19.866-76.469-75.715-14.153-81.702-13.939-220.319.48-302.699 9.918-56.748 19.82-66.757 75.7-76.461 38.794-6.741 91.817-10.458 149.312-10.458 58.012 0 113.938 3.961 153.41 10.868 56.748 9.933 66.757 19.843 76.477 75.715 14.168 81.709 13.97 220.342-.442 302.745z"/><path d="M226.611 202.645c-3.143-6.286-4.714-11.017-6.286-17.303l11.017-4.714c1.571 4.714 4.714 11.017 6.286 15.731h4.714c12.588 0 23.605 11.017 23.605 23.605v3.143c18.874 7.874 37.765 14.16 53.497 18.874 1.571 0 3.143 1.571 6.286 1.571 4.714-9.446 14.16-15.731 23.605-15.731h1.571c3.143-11.017 4.714-20.462 6.286-29.891h-15.731c-1.571-3.143-18.874-67.657-89.691-67.657-4.714 0-11.017 0-15.731 1.571-36.194 4.714-53.497 20.462-64.514 37.765 17.303 12.588 36.194 23.605 55.068 33.034-1.571 1.571 0 0 0 0l.018.002zm-20.463-55.069l11.017-3.143c1.571 6.286 3.143 12.588 6.286 18.874l-11.017 3.143c-1.572-4.714-4.715-12.588-6.286-18.874zM298.982 337.958c-3.143-3.143-3.143-7.874-3.143-11.017 0-11.017 7.874-18.874 18.874-18.874h4.714c6.286-11.017 11.017-22.034 15.731-31.463-6.286-4.714-11.017-12.588-11.017-22.034-1.571 0-3.143-1.571-6.286-1.571-17.303-4.714-36.194-11.017-56.64-18.874-4.714 6.286-11.017 9.446-18.874 9.446-12.588 0-23.605-11.017-23.605-23.605v-6.286c-17.303-9.446-36.194-20.463-53.497-34.622-6.286 18.874-4.714 36.194-4.714 37.765 0 0-75.531 3.143-86.531 58.211-12.588 67.657 58.211 94.405 84.96 94.405h108.565c14.16-9.446 22.034-20.463 31.463-31.463v-.018zm-11.017-53.497c3.143 4.714 7.874 11.017 11.017 15.731l-9.446 7.874c-4.714-4.714-7.874-11.017-12.588-15.731l11.017-7.874zm-33.035-26.748l9.446-6.286c3.143 4.714 6.286 11.017 11.017 17.303l-9.446 6.286c-3.143-6.286-6.286-11.017-11.017-17.303zM349.335 281.318h-3.143c-4.714 11.017-11.017 22.034-17.303 34.622 3.143 3.143 4.714 7.874 4.714 12.588 0 11.017-7.874 18.874-18.874 18.874-1.571 0-3.143 0-4.714-1.571-6.286 7.874-14.16 17.303-22.034 25.177h53.497c3.143 0 59.783 0 86.531-51.925 7.874-14.16 9.446-31.463 7.874-47.211-17.303 0-37.765-1.571-62.942-6.286-4.715 7.875-14.16 15.732-23.606 15.732zm-6.302 86.531l-14.16-14.16 7.874-7.874 14.16 14.16-7.874 7.874zM374.512 252.999c22.034 3.143 42.48 4.714 58.211 4.714-7.874-28.32-29.891-51.925-64.514-58.211-1.571 9.446-3.143 20.463-6.286 31.463 7.875 4.714 12.589 12.588 12.589 22.034z"/></g></svg>