<svg xmlns="http://www.w3.org/2000/svg" viewBox="0 0 512 512"><path fill="#FFF" d="M499.037 101.813c-10.847-62.461-25.838-77.337-89.152-88.42-40.31-7.053-97.21-11.098-156.091-11.098-58.363 0-112.338 3.801-151.978 10.687-62.468 10.855-77.345 25.853-88.405 89.152-14.663 83.819-14.884 224.882-.48 308.031 10.817 62.461 25.815 77.329 89.152 88.42 40.409 7.069 97.431 11.121 156.434 11.121h.008c58.218 0 112.087-3.778 151.665-10.634 62.476-10.862 77.36-25.853 88.405-89.167 14.671-83.834 14.869-224.928.442-308.092z"/><path fill="#FFF" d="M499.037 101.813c-10.847-62.461-25.838-77.337-89.152-88.42-40.31-7.053-97.21-11.098-156.091-11.098-58.363 0-112.338 3.801-151.978 10.687-62.468 10.855-77.345 25.853-88.405 89.152-14.663 83.819-14.884 224.882-.48 308.031 10.817 62.461 25.815 77.329 89.152 88.42 40.409 7.069 97.431 11.121 156.434 11.121h.008c58.218 0 112.087-3.778 151.665-10.634 62.476-10.862 77.36-25.853 88.405-89.167 14.671-83.834 14.869-224.928.442-308.092z"/><path fill="#3CF" d="M258.525 509.706h-.008c-59.003 0-116.025-4.052-156.434-11.121-63.337-11.091-78.335-25.959-89.152-88.42-14.404-83.149-14.183-224.212.48-308.031 11.06-63.299 25.937-78.297 88.405-89.152 39.64-6.886 93.615-10.687 151.978-10.687 58.881 0 115.781 4.045 156.091 11.098 63.314 11.083 78.305 25.959 89.152 88.42 14.427 83.164 14.229 224.258-.442 308.092-11.045 63.314-25.929 78.305-88.405 89.167-39.578 6.856-93.447 10.634-151.665 10.634zm-4.73-491.812c-57.495 0-110.518 3.717-149.312 10.458-55.88 9.704-65.782 19.713-75.7 76.461-14.419 82.38-14.633 220.997-.48 302.699 9.674 55.849 19.683 65.767 76.469 75.715 39.564 6.916 95.596 10.877 153.745 10.877h.008c57.365 0 110.274-3.687 149-10.39 55.895-9.72 65.797-19.729 75.715-76.492 14.412-82.403 14.61-221.036.442-302.745-9.72-55.872-19.729-65.782-76.477-75.715-39.472-6.907-95.398-10.868-153.41-10.868z"/><path fill="#3CF" d="M427.532 220.35l-85.377-41.427-83.494-40.554-.849-.413-1.02.477-86.506 40.412-85.818 41.445v72.172l85.377 41.427 83.494 40.554.849.413 1.02-.477 86.506-40.412 85.818-41.445V220.35z"/><g fill="#FFF"><path d="M355.174 212.164l-.067-.033-19.992-9.684-38.496-18.646-6.546 19.63 21.146 10.243-56.256 26.428-13.373-6.478-10.444 27.236 57.254-4.562-13.377-6.48z"/><path d="M204.889 225.343l56.247-26.425 13.378 6.48 10.448-27.243-57.258 4.569 13.371 6.477-56.247 26.425-23.895 11.225 20.061 9.717 38.428 18.614 6.545-19.63z"/></g><path fill="#FFF" d="M255.208 347.379l-1.02.477-.849-.413-83.494-40.554-85.377-41.427v13l85.377 41.427 83.494 40.554.849.413 1.02-.477 86.506-40.412 85.818-41.445v-13l-85.818 41.445z"/></svg>